<svg preserveAspectRatio="none" width="100%" height="100%" overflow="visible" style="display: block;" viewBox="0 0 27 18.8251" fill="none" xmlns="http://www.w3.org/2000/svg">
<path id="Vector" d="M0.00227339 0L2.55835 0.00213983L2.55604 5.32478C2.55601 6.30001 2.51977 7.36999 2.61843 8.33574C2.67188 8.69367 2.75303 8.99882 2.97305 9.28885C3.68919 10.2329 4.58093 10.104 5.62331 10.1031L7.97709 10.1006L18.1956 10.1013L21.2063 10.0994C21.5948 10.099 22.4333 10.0749 22.7829 10.1192C22.3872 9.70845 21.9025 9.27827 21.4828 8.88065L19.5547 7.02534C19.2463 6.72786 18.5902 6.13404 18.3496 5.82408C18.6664 5.40229 19.7055 4.32445 20.1176 3.9748C20.4035 4.26036 20.7385 4.55537 21.034 4.84037C22.2087 5.98194 23.3954 7.11136 24.5932 8.22847C25.1699 8.77652 25.743 9.32707 26.3147 9.87971C27.0336 10.5744 27.2145 11.5094 26.7254 12.3951C26.3074 12.9881 25.5056 13.6143 24.9865 14.1436C23.4213 15.7398 21.6518 17.2004 20.1251 18.8251C19.8269 18.5741 19.5252 18.227 19.256 17.9397C18.9446 17.6135 18.631 17.2894 18.3151 16.9675C19.1198 16.1287 20.1102 15.2638 20.9476 14.4321C21.3314 14.0509 22.4569 12.9456 22.8224 12.6983C20.7897 12.7267 18.7015 12.7038 16.6649 12.7035L5.30004 12.7066C3.35708 12.7081 1.8645 12.2898 0.732552 10.6029C0.236195 9.86317 0.0789228 9.31301 0.0365129 8.42785C-0.0143735 7.36487 0.00271834 6.31427 0.00291288 5.25255L0.00227339 0Z" fill="var(--fill-0, #26040B)"/>
</svg>
