<svg preserveAspectRatio="none" width="100%" height="100%" overflow="visible" style="display: block;" viewBox="0 0 90.4929 30.1796" fill="none" xmlns="http://www.w3.org/2000/svg">
<g id="logo_white">
<path d="M50.1509 15.8318L44.9435 6.54914H43.0461L37.8369 15.8324L32.6275 6.54914H26.7661L36.3439 23.6306H39.3295L43.995 15.31L48.6577 23.6306H51.6433L61.2211 6.54914H55.3597L50.1509 15.8318Z" fill="var(--fill-0, white)"/>
<path d="M19.1483 6.54914H0V11.2397H18.128C20.251 11.2397 21.972 12.9607 21.972 15.0837C21.972 17.2067 20.251 18.9277 18.128 18.9277H0V23.6304H16.3861L19.8541 30.1796H25.72L21.994 23.1429C25.3115 21.9705 27.6892 18.8084 27.6892 15.0896C27.6892 10.3726 23.8653 6.54895 19.1485 6.54895L19.1483 6.54914Z" fill="var(--fill-0, white)"/>
<path d="M81.9523 6.54914H68.5209V0H62.8039V11.2399H80.932C83.055 11.2399 84.776 12.9609 84.776 15.0839C84.776 17.2069 83.055 18.9279 80.932 18.9279H62.8039V23.6306H81.9523C86.6692 23.6306 90.4929 19.8067 90.4929 15.09C90.4929 10.373 86.6692 6.54914 81.9523 6.54914Z" fill="var(--fill-0, white)"/>
</g>
</svg>
